<svg width="18" height="18" viewBox="0 0 18 18" fill="none" xmlns="http://www.w3.org/2000/svg">
<path d="M12.375 4.21875H5.625C5.55041 4.21875 5.47887 4.24838 5.42613 4.30113C5.37338 4.35387 5.34375 4.42541 5.34375 4.5V7.875C5.34375 7.94959 5.37338 8.02113 5.42613 8.07387C5.47887 8.12662 5.55041 8.15625 5.625 8.15625H12.375C12.4496 8.15625 12.5211 8.12662 12.5739 8.07387C12.6266 8.02113 12.6562 7.94959 12.6562 7.875V4.5C12.6562 4.42541 12.6266 4.35387 12.5739 4.30113C12.5211 4.24838 12.4496 4.21875 12.375 4.21875ZM12.0938 7.59375H5.90625V4.78125H12.0938V7.59375ZM14.0625 1.96875H3.9375C3.71372 1.96875 3.49911 2.05764 3.34088 2.21588C3.18264 2.37411 3.09375 2.58872 3.09375 2.8125V15.1875C3.09375 15.4113 3.18264 15.6259 3.34088 15.7841C3.49911 15.9424 3.71372 16.0312 3.9375 16.0312H14.0625C14.2863 16.0312 14.5009 15.9424 14.6591 15.7841C14.8174 15.6259 14.9062 15.4113 14.9062 15.1875V2.8125C14.9062 2.58872 14.8174 2.37411 14.6591 2.21588C14.5009 2.05764 14.2863 1.96875 14.0625 1.96875ZM14.3438 15.1875C14.3438 15.2621 14.3141 15.3336 14.2614 15.3864C14.2086 15.4391 14.1371 15.4688 14.0625 15.4688H3.9375C3.86291 15.4688 3.79137 15.4391 3.73863 15.3864C3.68588 15.3336 3.65625 15.2621 3.65625 15.1875V2.8125C3.65625 2.73791 3.68588 2.66637 3.73863 2.61363C3.79137 2.56088 3.86291 2.53125 3.9375 2.53125H14.0625C14.1371 2.53125 14.2086 2.56088 14.2614 2.61363C14.3141 2.66637 14.3438 2.73791 14.3438 2.8125V15.1875ZM6.75 10.4062C6.75 10.5175 6.71701 10.6263 6.6552 10.7188C6.59339 10.8113 6.50554 10.8834 6.40276 10.9259C6.29998 10.9685 6.18688 10.9796 6.07776 10.9579C5.96865 10.9362 5.86842 10.8827 5.78975 10.804C5.71109 10.7253 5.65751 10.6251 5.63581 10.516C5.6141 10.4069 5.62524 10.2938 5.66782 10.191C5.71039 10.0882 5.78249 10.0004 5.87499 9.93855C5.96749 9.87674 6.07625 9.84375 6.1875 9.84375C6.33668 9.84375 6.47976 9.90301 6.58525 10.0085C6.69074 10.114 6.75 10.2571 6.75 10.4062ZM9.5625 10.4062C9.5625 10.5175 9.52951 10.6263 9.4677 10.7188C9.40589 10.8113 9.31804 10.8834 9.21526 10.9259C9.11248 10.9685 8.99938 10.9796 8.89026 10.9579C8.78115 10.9362 8.68092 10.8827 8.60225 10.804C8.52359 10.7253 8.47001 10.6251 8.44831 10.516C8.4266 10.4069 8.43774 10.2938 8.48032 10.191C8.52289 10.0882 8.59499 10.0004 8.68749 9.93855C8.77999 9.87674 8.88875 9.84375 9 9.84375C9.14918 9.84375 9.29226 9.90301 9.39775 10.0085C9.50324 10.114 9.5625 10.2571 9.5625 10.4062ZM12.375 10.4062C12.375 10.5175 12.342 10.6263 12.2802 10.7188C12.2184 10.8113 12.1305 10.8834 12.0278 10.9259C11.925 10.9685 11.8119 10.9796 11.7028 10.9579C11.5936 10.9362 11.4934 10.8827 11.4148 10.804C11.3361 10.7253 11.2825 10.6251 11.2608 10.516C11.2391 10.4069 11.2502 10.2938 11.2928 10.191C11.3354 10.0882 11.4075 10.0004 11.5 9.93855C11.5925 9.87674 11.7012 9.84375 11.8125 9.84375C11.9617 9.84375 12.1048 9.90301 12.2102 10.0085C12.3157 10.114 12.375 10.2571 12.375 10.4062ZM6.75 13.2188C6.75 13.33 6.71701 13.4388 6.6552 13.5313C6.59339 13.6238 6.50554 13.6959 6.40276 13.7384C6.29998 13.781 6.18688 13.7921 6.07776 13.7704C5.96865 13.7487 5.86842 13.6952 5.78975 13.6165C5.71109 13.5378 5.65751 13.4376 5.63581 13.3285C5.6141 13.2194 5.62524 13.1063 5.66782 13.0035C5.71039 12.9007 5.78249 12.8129 5.87499 12.751C5.96749 12.6892 6.07625 12.6562 6.1875 12.6562C6.33668 12.6562 6.47976 12.7155 6.58525 12.821C6.69074 12.9265 6.75 13.0696 6.75 13.2188ZM9.5625 13.2188C9.5625 13.33 9.52951 13.4388 9.4677 13.5313C9.40589 13.6238 9.31804 13.6959 9.21526 13.7384C9.11248 13.781 8.99938 13.7921 8.89026 13.7704C8.78115 13.7487 8.68092 13.6952 8.60225 13.6165C8.52359 13.5378 8.47001 13.4376 8.44831 13.3285C8.4266 13.2194 8.43774 13.1063 8.48032 13.0035C8.52289 12.9007 8.59499 12.8129 8.68749 12.751C8.77999 12.6892 8.88875 12.6562 9 12.6562C9.14918 12.6562 9.29226 12.7155 9.39775 12.821C9.50324 12.9265 9.5625 13.0696 9.5625 13.2188ZM12.375 13.2188C12.375 13.33 12.342 13.4388 12.2802 13.5313C12.2184 13.6238 12.1305 13.6959 12.0278 13.7384C11.925 13.781 11.8119 13.7921 11.7028 13.7704C11.5936 13.7487 11.4934 13.6952 11.4148 13.6165C11.3361 13.5378 11.2825 13.4376 11.2608 13.3285C11.2391 13.2194 11.2502 13.1063 11.2928 13.0035C11.3354 12.9007 11.4075 12.8129 11.5 12.751C11.5925 12.6892 11.7012 12.6562 11.8125 12.6562C11.9617 12.6562 12.1048 12.7155 12.2102 12.821C12.3157 12.9265 12.375 13.0696 12.375 13.2188Z" fill="currentColor"/>
</svg>
