<svg width="20" height="20" viewBox="0 0 20 20" fill="none" xmlns="http://www.w3.org/2000/svg">
<path d="M14.375 5.3125H3.125C3.04212 5.3125 2.96263 5.34542 2.90403 5.40403C2.84542 5.46263 2.8125 5.54212 2.8125 5.625V16.875C2.8125 16.9579 2.84542 17.0374 2.90403 17.096C2.96263 17.1546 3.04212 17.1875 3.125 17.1875H14.375C14.4579 17.1875 14.5374 17.1546 14.596 17.096C14.6546 17.0374 14.6875 16.9579 14.6875 16.875V5.625C14.6875 5.54212 14.6546 5.46263 14.596 5.40403C14.5374 5.34542 14.4579 5.3125 14.375 5.3125ZM14.0625 16.5625H3.4375V5.9375H14.0625V16.5625ZM17.1875 3.125V14.375C17.1875 14.4579 17.1546 14.5374 17.096 14.596C17.0374 14.6546 16.9579 14.6875 16.875 14.6875C16.7921 14.6875 16.7126 14.6546 16.654 14.596C16.5954 14.5374 16.5625 14.4579 16.5625 14.375V3.4375H5.625C5.54212 3.4375 5.46263 3.40458 5.40403 3.34597C5.34542 3.28737 5.3125 3.20788 5.3125 3.125C5.3125 3.04212 5.34542 2.96263 5.40403 2.90403C5.46263 2.84542 5.54212 2.8125 5.625 2.8125H16.875C16.9579 2.8125 17.0374 2.84542 17.096 2.90403C17.1546 2.96263 17.1875 3.04212 17.1875 3.125Z" fill="black"/>
</svg>
