<svg width="20" height="20" viewBox="0 0 19 19" fill="none" xmlns="http://www.w3.org/2000/svg">
<path d="M2.375 4.75H3.95833H16.625" stroke="#A30D11" stroke-width="2" stroke-linecap="round" stroke-linejoin="round"/>
<path d="M6.33203 4.7487V3.16536C6.33203 2.74544 6.49885 2.34271 6.79578 2.04578C7.09271 1.74885 7.49544 1.58203 7.91536 1.58203H11.082C11.502 1.58203 11.9047 1.74885 12.2016 2.04578C12.4985 2.34271 12.6654 2.74544 12.6654 3.16536V4.7487M15.0404 4.7487V15.832C15.0404 16.252 14.8735 16.6547 14.5766 16.9516C14.2797 17.2485 13.877 17.4154 13.457 17.4154H5.54036C5.12044 17.4154 4.71771 17.2485 4.42078 16.9516C4.12385 16.6547 3.95703 16.252 3.95703 15.832V4.7487H15.0404Z" stroke="#A30D11" stroke-width="2" stroke-linecap="round" stroke-linejoin="round"/>
<path d="M7.91797 8.70703V13.457" stroke="#A30D11" stroke-width="2" stroke-linecap="round" stroke-linejoin="round"/>
<path d="M11.082 8.70703V13.457" stroke="#A30D11" stroke-width="2" stroke-linecap="round" stroke-linejoin="round"/>
</svg>
